<svg width="1200" height="630" viewBox="0 0 1200 630" fill="none" xmlns="http://www.w3.org/2000/svg">
  <defs>
    <linearGradient id="bg" x1="120" y1="70" x2="1030" y2="610" gradientUnits="userSpaceOnUse">
      <stop stop-color="#101A2E"/>
      <stop offset="1" stop-color="#0B1220"/>
    </linearGradient>
    <radialGradient id="glow" cx="0" cy="0" r="1" gradientUnits="userSpaceOnUse"
      gradientTransform="translate(958 108) rotate(128.324) scale(355.396 515.263)">
      <stop stop-color="#4F8CFF" stop-opacity="0.35"/>
      <stop offset="1" stop-color="#4F8CFF" stop-opacity="0"/>
    </radialGradient>
  </defs>

  <rect width="1200" height="630" rx="32" fill="url(#bg)"/>
  <rect width="1200" height="630" rx="32" fill="url(#glow)"/>

  <g opacity="0.11">
    <path d="M0 90H1200" stroke="#F3F4F6"/>
    <path d="M0 180H1200" stroke="#F3F4F6"/>
    <path d="M0 270H1200" stroke="#F3F4F6"/>
    <path d="M0 360H1200" stroke="#F3F4F6"/>
    <path d="M0 450H1200" stroke="#F3F4F6"/>
    <path d="M0 540H1200" stroke="#F3F4F6"/>
    <path d="M150 0V630" stroke="#F3F4F6"/>
    <path d="M300 0V630" stroke="#F3F4F6"/>
    <path d="M450 0V630" stroke="#F3F4F6"/>
    <path d="M600 0V630" stroke="#F3F4F6"/>
    <path d="M750 0V630" stroke="#F3F4F6"/>
    <path d="M900 0V630" stroke="#F3F4F6"/>
    <path d="M1050 0V630" stroke="#F3F4F6"/>
  </g>

  <rect x="70" y="72" width="180" height="42" rx="21" fill="rgba(79,140,255,0.14)" stroke="rgba(79,140,255,0.32)"/>
  <text x="102" y="99" fill="#A7B0C0" font-family="Arial, Helvetica, sans-serif" font-size="16" font-weight="700"
    letter-spacing="2.8">CALEB STAMMEN</text>

  <text x="70" y="238" fill="#F3F4F6" font-family="Arial, Helvetica, sans-serif" font-size="78" font-weight="700"
    letter-spacing="-3.8">Software and AI systems</text>
  <text x="70" y="320" fill="#F3F4F6" font-family="Arial, Helvetica, sans-serif" font-size="78" font-weight="700"
    letter-spacing="-3.8">built for real operations.</text>

  <text x="74" y="396" fill="#A7B0C0" font-family="Arial, Helvetica, sans-serif" font-size="29" font-weight="500">
    AI Lead at Garmann Miller. Owner of Stammen Technology.
  </text>
  <text x="74" y="438" fill="#A7B0C0" font-family="Arial, Helvetica, sans-serif" font-size="29" font-weight="500">
    Custom software, workflow automation, and practical AI.
  </text>

  <rect x="70" y="500" width="388" height="1.5" fill="#4F8CFF" fill-opacity="0.55"/>

  <g transform="translate(930 376)">
    <rect width="200" height="144" rx="26" fill="rgba(18,26,43,0.9)" stroke="rgba(243,244,246,0.08)"/>
    <text x="28" y="44" fill="#A7B0C0" font-family="Arial, Helvetica, sans-serif" font-size="15" font-weight="700"
      letter-spacing="2.4">CURRENT FOCUS</text>
    <text x="28" y="78" fill="#F3F4F6" font-family="Arial, Helvetica, sans-serif" font-size="28" font-weight="700">
      Custom software
    </text>
    <text x="28" y="112" fill="#F3F4F6" font-family="Arial, Helvetica, sans-serif" font-size="28" font-weight="700">
      Practical AI
    </text>
  </g>

  <text x="70" y="568" fill="#F3F4F6" font-family="Arial, Helvetica, sans-serif" font-size="22" font-weight="600">
    calebstammen.com
  </text>
</svg>
