<?xml version="1.0" encoding="UTF-8"?>
<svg xmlns="http://www.w3.org/2000/svg" width="720" height="720" viewBox="0 0 720 720">
  <defs>
    <style>
      .c{fill:none;stroke:#0b1b1a;stroke-width:1.1;opacity:.14;stroke-linecap:round;stroke-linejoin:round}
    </style>
  </defs>

  <!--
    Simple, tile-friendly contour-style lines.
    This is intentionally subtle; opacity is tuned in CSS too.
  -->
  <path class="c" d="M88 98c54-36 108-46 162-30 36 10 62 33 78 68 20 45 16 86-12 124-30 41-75 64-134 69-58 5-110-10-156-47-32-25-49-55-52-90-3-39 14-71 52-94z"/>
  <path class="c" d="M124 130c44-28 88-36 130-24 30 9 51 28 63 56 16 37 12 71-10 102-26 36-64 56-114 61-48 4-92-9-130-39-26-21-40-45-42-74-2-31 11-56 40-72z"/>
  <path class="c" d="M168 168c34-20 68-26 102-16 22 6 38 20 48 40 12 26 9 50-8 72-20 26-49 41-88 44-36 3-69-8-98-31-20-16-30-34-31-55-1-22 9-40 30-54z"/>

  <path class="c" d="M454 88c64-22 122-16 175 18 34 22 54 52 58 91 5 52-15 97-60 136-42 37-96 56-163 57-55 1-102-12-141-39-44-30-64-70-61-122 3-60 38-104 105-131z"/>
  <path class="c" d="M478 122c54-18 103-13 146 14 28 18 44 43 47 75 4 43-13 80-51 112-36 31-82 47-139 48-47 1-87-10-120-33-37-25-54-58-51-100 3-48 31-84 86-106z"/>
  <path class="c" d="M505 160c42-14 80-10 114 11 22 14 35 34 37 59 3 34-10 64-40 89-28 24-64 36-108 37-36 1-67-8-92-25-29-20-42-45-40-78 2-38 25-66 69-83z"/>

  <path class="c" d="M116 510c62-40 128-52 200-36 44 10 77 33 100 70 28 44 30 88 6 132-26 48-71 78-136 90-72 13-140 1-205-36-52-30-79-71-82-123-3-43 13-77 47-103 20-15 43-27 70-34z"/>
  <path class="c" d="M156 536c52-32 107-41 166-28 36 8 63 27 82 57 22 36 24 72 5 108-22 40-59 65-112 75-60 11-117 1-171-30-44-26-67-61-70-106-3-36 10-65 39-86 16-12 37-22 61-27z"/>
  <path class="c" d="M204 566c40-24 83-31 128-21 28 6 50 20 64 42 18 28 19 56 4 83-17 31-45 50-86 57-46 8-90 1-131-23-33-19-50-45-52-78-2-26 7-47 29-62 12-8 27-15 44-18z"/>
</svg>

